<?xml version="1.0"?>
<svg width="860" height="466" xmlns="http://www.w3.org/2000/svg" xmlns:svg="http://www.w3.org/2000/svg" version="1.2">
 <title>23254597_christmas_2012_new_2857-ai</title>

 <style>.s0 { fill: #f5f5f5 } 
		.s1 { fill: #000000 } 
		.s2 { opacity: .6;mix-blend-mode: multiply;fill: url(#g1) } 
		.s3 { fill: #a36d3d }</style>
 <g class="layer">
  <title>Layer 1</title>
  <g id="_Artboards_"/>
  <path class="s2" d="m849.1,414.38c0,20.33 -110.4,36.93 -246.6,36.93c-136.3,0 -246.7,-16.6 -246.7,-36.93c0,-20.55 110.4,-37.04 246.7,-37.04c136.2,0 246.6,16.49 246.6,37.04z" id="svg_1"/>
  <g id="&lt;Group&gt;" transform="matrix(1 0 0 1 0 0)">
   <path class="s3" d="m596.3,402.67c122.6,49.01 136.7,-144.78 81.4,-215.36c9.6,-30.83 -1.2,-77.02 -30,-116.89c-37.3,-50.82 -90.1,-71.03 -117.8,-45.29c-28.1,26.2 -20.4,88.54 16.5,139.25c27.7,37.95 64,58.72 92.3,56.35c11.2,7 18.5,13.78 33.4,33.32c88.8,132.13 -48.9,147.94 -285.8,-34.67c-274.9,-212.54 -318.8,-71.26 -276.7,34.78c25.8,28.57 5.5,81.99 31.3,108.53c30,31.4 72.4,69.68 114.4,65.05c-35.2,-23.83 -64.8,-53.64 -96.7,-87.07q-1.9,-1.58 -2.6,-4.18c-0.8,-1.81 -1.6,-3.95 -1.7,-5.99l-0.1,-1.24c-0.5,-1.81 -0.3,-3.39 0,-5.31c0,-2.03 0.6,-3.95 1.6,-5.42l28.2,-60.42l0,-0.45c0.2,-1.13 1.1,-2.26 1.6,-2.94c0.8,-0.68 1.9,-1.24 2.8,-1.92c1.1,-0.23 2.5,0 3.8,0.68c1.4,0.34 2.7,1.81 4.6,3.39l-0.1,0.34l119.3,122.42c1.6,1.47 3.6,2.71 5.4,3.05c0.7,-39.07 -74,-110.56 -105.4,-142.63l-20.1,-20.55c-23.6,-21.68 -44.1,23.49 -70.3,-1.92c-55.6,-49.46 17.5,-88.65 141.1,-43.82c153.9,55.34 224.8,186.9 329.6,228.91zm-411.1,-90.01c-2.5,-2.48 -5.9,-3.61 -8.9,-3.39c-3.3,0.23 -6.4,2.15 -9,4.86c-2.3,2.82 -3.5,6.66 -3.4,10.39c-0.1,3.28 1.1,7.11 3.7,9.71c146.4,122.19 149.3,124.45 17.6,-21.57zm17,-36.03c-2.5,-2.94 -5.6,-3.95 -8.9,-3.73c-3.3,0.23 -6.4,1.69 -8.7,4.86c-2.5,2.82 -3.5,6.66 -3.7,10.39c0.2,3.73 1.5,7.23 4,9.71c168.5,158.67 151.1,134.95 17.3,-21.23z" id="&lt;Compound Path&gt;"/>
  </g>
 </g>
</svg>