<svg xmlns="http://www.w3.org/2000/svg" xmlns:xlink="http://www.w3.org/1999/xlink" width="325" zoomAndPan="magnify" viewBox="0 0 243.75 116.249996" height="155" preserveAspectRatio="xMidYMid meet" version="1.0"><defs><g/></defs><g fill="#303030" fill-opacity="1"><g transform="translate(19.5625, 40.568176)"><g><path d="M 20.9375 -27.171875 C 19.71875 -27.003906 18.921875 -26.753906 18.546875 -26.421875 C 18.179688 -26.097656 17.816406 -25.296875 17.453125 -24.015625 L 13.046875 -8.1875 C 12.191406 -5.113281 11.226562 -2.9375 10.15625 -1.65625 C 8.789062 -0.0390625 6.984375 0.765625 4.734375 0.765625 C 3.222656 0.765625 2.015625 0.425781 1.109375 -0.25 C 0.203125 -0.9375 -0.25 -1.847656 -0.25 -2.984375 C -0.25 -3.671875 -0.0703125 -4.226562 0.28125 -4.65625 C 0.632812 -5.082031 1.09375 -5.296875 1.65625 -5.296875 C 2.226562 -5.296875 2.71875 -5.09375 3.125 -4.6875 C 3.539062 -4.289062 3.75 -3.820312 3.75 -3.28125 L 3.75 -2.90625 C 3.726562 -2.757812 3.71875 -2.546875 3.71875 -2.265625 C 3.71875 -1.117188 4.210938 -0.546875 5.203125 -0.546875 C 6.171875 -0.546875 6.867188 -1.316406 7.296875 -2.859375 L 12.875 -22.6875 C 13.21875 -23.9375 13.390625 -24.847656 13.390625 -25.421875 C 13.390625 -25.992188 13.175781 -26.398438 12.75 -26.640625 C 12.320312 -26.878906 11.441406 -27.054688 10.109375 -27.171875 L 10.109375 -27.859375 L 20.9375 -27.859375 Z M 20.9375 -27.171875 "/></g></g></g><g fill="#303030" fill-opacity="1"><g transform="translate(36.793012, 40.568176)"><g><path d="M 20.265625 -4.609375 C 18.785156 -2.503906 17.679688 -1.144531 16.953125 -0.53125 C 16.234375 0.0820312 15.375 0.390625 14.375 0.390625 C 13.007812 0.390625 12.328125 -0.289062 12.328125 -1.65625 C 12.328125 -2.570312 12.96875 -5.375 14.25 -10.0625 C 11.800781 -5.96875 9.863281 -3.1875 8.4375 -1.71875 C 7.019531 -0.257812 5.554688 0.46875 4.046875 0.46875 C 2.546875 0.46875 1.796875 -0.3125 1.796875 -1.875 C 1.796875 -2.644531 2.148438 -4.394531 2.859375 -7.125 L 4.4375 -13.1875 C 4.832031 -14.632812 5.03125 -15.582031 5.03125 -16.03125 C 5.03125 -16.4375 4.875 -16.695312 4.5625 -16.8125 C 4.25 -16.976562 3.550781 -17.0625 2.46875 -17.0625 L 2.46875 -17.65625 C 4.4375 -17.882812 6.570312 -18.269531 8.875 -18.8125 L 9 -18.71875 L 5.125 -3.234375 C 5.09375 -3.148438 5.078125 -3.023438 5.078125 -2.859375 C 5.078125 -2.148438 5.375 -1.796875 5.96875 -1.796875 C 7.363281 -1.796875 9.367188 -3.867188 11.984375 -8.015625 C 12.953125 -9.554688 13.691406 -10.882812 14.203125 -12 C 14.710938 -13.125 15.535156 -15.265625 16.671875 -18.421875 L 19.828125 -18.421875 L 16.46875 -5.671875 C 15.925781 -3.628906 15.65625 -2.519531 15.65625 -2.34375 C 15.65625 -1.863281 15.8125 -1.625 16.125 -1.625 C 16.46875 -1.625 16.859375 -1.835938 17.296875 -2.265625 C 17.734375 -2.691406 18.523438 -3.597656 19.671875 -4.984375 Z M 20.265625 -4.609375 "/></g></g></g><g fill="#303030" fill-opacity="1"><g transform="translate(56.411949, 40.568176)"><g><path d="M 20.296875 -4.265625 C 18.710938 -2.328125 17.539062 -1.0625 16.78125 -0.46875 C 16.03125 0.125 15.226562 0.421875 14.375 0.421875 C 13.238281 0.421875 12.671875 -0.160156 12.671875 -1.328125 C 12.671875 -2.035156 13 -3.671875 13.65625 -6.234375 C 11.769531 -3.585938 10.242188 -1.804688 9.078125 -0.890625 C 7.921875 0.015625 6.585938 0.46875 5.078125 0.46875 C 3.710938 0.46875 2.644531 0.0507812 1.875 -0.78125 C 1.101562 -1.625 0.71875 -2.785156 0.71875 -4.265625 C 0.71875 -6.453125 1.335938 -8.691406 2.578125 -10.984375 C 3.816406 -13.273438 5.390625 -15.148438 7.296875 -16.609375 C 9.203125 -18.078125 11.078125 -18.8125 12.921875 -18.8125 C 14.828125 -18.8125 15.96875 -17.988281 16.34375 -16.34375 L 16.8125 -18.390625 L 16.9375 -18.515625 L 19.53125 -18.8125 L 19.828125 -18.6875 C 19.804688 -18.570312 19.722656 -18.269531 19.578125 -17.78125 C 17.046875 -8.570312 15.78125 -3.410156 15.78125 -2.296875 C 15.78125 -1.929688 15.976562 -1.75 16.375 -1.75 C 16.71875 -1.75 17.457031 -2.332031 18.59375 -3.5 L 19.796875 -4.6875 Z M 15.5625 -15.265625 C 15.5625 -16.003906 15.34375 -16.613281 14.90625 -17.09375 C 14.46875 -17.582031 13.894531 -17.84375 13.1875 -17.875 C 11.363281 -18.019531 9.5 -16.710938 7.59375 -13.953125 C 6.707031 -12.609375 5.9375 -11.035156 5.28125 -9.234375 C 4.632812 -7.429688 4.3125 -5.945312 4.3125 -4.78125 C 4.3125 -3.8125 4.53125 -3.039062 4.96875 -2.46875 C 5.40625 -1.90625 6.007812 -1.625 6.78125 -1.625 C 8.144531 -1.625 9.382812 -2.25 10.5 -3.5 C 11.945312 -5.09375 13.148438 -7.003906 14.109375 -9.234375 C 15.078125 -11.460938 15.5625 -13.472656 15.5625 -15.265625 Z M 15.5625 -15.265625 "/></g></g></g><g fill="#303030" fill-opacity="1"><g transform="translate(76.030885, 40.568176)"><g><path d="M 20.21875 -4.4375 C 18.738281 -2.445312 17.613281 -1.144531 16.84375 -0.53125 C 16.082031 0.0820312 15.21875 0.390625 14.25 0.390625 C 13.539062 0.390625 13.03125 0.207031 12.71875 -0.15625 C 12.40625 -0.53125 12.25 -1.117188 12.25 -1.921875 C 12.25 -2.234375 12.472656 -3.300781 12.921875 -5.125 L 14.796875 -12.15625 C 15.203125 -13.6875 15.40625 -14.769531 15.40625 -15.40625 C 15.40625 -16.226562 15.0625 -16.640625 14.375 -16.640625 C 12.78125 -16.640625 10.675781 -14.617188 8.0625 -10.578125 C 7.125 -9.128906 6.425781 -7.84375 5.96875 -6.71875 C 5.519531 -5.59375 4.796875 -3.351562 3.796875 0 L 0.59375 0 L 4.6875 -14.921875 C 4.75 -15.210938 4.78125 -15.457031 4.78125 -15.65625 C 4.78125 -16.082031 4.59375 -16.375 4.21875 -16.53125 C 3.851562 -16.6875 3.128906 -16.78125 2.046875 -16.8125 L 2.046875 -17.484375 L 8.953125 -18.8125 L 9.078125 -18.71875 L 6.234375 -9.421875 C 8.421875 -12.835938 10.257812 -15.253906 11.75 -16.671875 C 13.238281 -18.097656 14.664062 -18.8125 16.03125 -18.8125 C 16.863281 -18.8125 17.539062 -18.566406 18.0625 -18.078125 C 18.59375 -17.597656 18.859375 -16.972656 18.859375 -16.203125 C 18.859375 -15.460938 18.726562 -14.65625 18.46875 -13.78125 L 16.03125 -4.984375 C 15.632812 -3.566406 15.4375 -2.671875 15.4375 -2.296875 C 15.4375 -1.847656 15.664062 -1.625 16.125 -1.625 C 16.664062 -1.625 17.53125 -2.375 18.71875 -3.875 C 18.925781 -4.101562 19.226562 -4.472656 19.625 -4.984375 Z M 20.21875 -4.4375 "/></g></g></g><g fill="#303030" fill-opacity="1"><g transform="translate(95.649822, 40.568176)"><g/></g></g><g fill="#303030" fill-opacity="1"><g transform="translate(104.606159, 40.568176)"><g><path d="M 10.0625 0 L -0.34375 0 L -0.34375 -0.6875 C 0.851562 -0.914062 1.632812 -1.191406 2 -1.515625 C 2.375 -1.835938 2.742188 -2.613281 3.109375 -3.84375 L 8.359375 -22.6875 C 8.671875 -23.738281 8.828125 -24.625 8.828125 -25.34375 C 8.828125 -25.96875 8.640625 -26.390625 8.265625 -26.609375 C 7.898438 -26.835938 7.09375 -27.023438 5.84375 -27.171875 L 5.84375 -27.859375 L 16.375 -27.859375 L 16.375 -27.171875 C 15.15625 -26.972656 14.367188 -26.707031 14.015625 -26.375 C 13.660156 -26.050781 13.28125 -25.265625 12.875 -24.015625 L 7.640625 -5.125 C 7.328125 -3.976562 7.171875 -3.082031 7.171875 -2.4375 C 7.171875 -1.832031 7.347656 -1.421875 7.703125 -1.203125 C 8.054688 -0.992188 8.84375 -0.820312 10.0625 -0.6875 Z M 10.0625 0 "/></g></g></g><g fill="#303030" fill-opacity="1"><g transform="translate(117.102478, 40.568176)"><g><path d="M 16.46875 2.5625 C 16.46875 4.40625 15.648438 5.898438 14.015625 7.046875 C 12.378906 8.203125 10.222656 8.78125 7.546875 8.78125 C 5.390625 8.78125 3.660156 8.335938 2.359375 7.453125 C 1.066406 6.578125 0.410156 5.398438 0.390625 3.921875 C 0.359375 2.953125 0.644531 2.125 1.25 1.4375 C 1.863281 0.757812 3.222656 -0.269531 5.328125 -1.65625 C 4.535156 -2.257812 4.140625 -2.816406 4.140625 -3.328125 C 4.140625 -3.835938 4.375 -4.347656 4.84375 -4.859375 C 5.3125 -5.367188 6.15625 -6.050781 7.375 -6.90625 C 6.15625 -7.445312 5.289062 -8.070312 4.78125 -8.78125 C 4.269531 -9.5 4 -10.410156 3.96875 -11.515625 C 3.96875 -13.535156 4.796875 -15.253906 6.453125 -16.671875 C 8.117188 -18.097656 10.132812 -18.8125 12.5 -18.8125 C 14.09375 -18.8125 15.484375 -18.410156 16.671875 -17.609375 C 16.984375 -17.390625 17.210938 -17.28125 17.359375 -17.28125 L 19.96875 -17.28125 L 20 -15.609375 L 17.875 -15.609375 C 18.125 -14.753906 18.25 -13.957031 18.25 -13.21875 C 18.28125 -11.539062 17.46875 -9.988281 15.8125 -8.5625 C 14.164062 -7.144531 12.378906 -6.4375 10.453125 -6.4375 C 9.910156 -6.4375 9.46875 -6.476562 9.125 -6.5625 L 8.828125 -6.609375 C 8.546875 -6.609375 8.21875 -6.394531 7.84375 -5.96875 C 7.476562 -5.539062 7.296875 -5.171875 7.296875 -4.859375 C 7.296875 -4.179688 8.289062 -3.585938 10.28125 -3.078125 C 14.34375 -2.023438 16.40625 -0.144531 16.46875 2.5625 Z M 13.90625 3.84375 C 13.875 2.84375 13.40625 2.007812 12.5 1.34375 C 11.59375 0.675781 10.015625 -0.0078125 7.765625 -0.71875 L 6.53125 -1.109375 L 6.3125 -1.1875 C 6.144531 -1.1875 5.722656 -0.921875 5.046875 -0.390625 C 4.378906 0.128906 3.90625 0.570312 3.625 0.9375 C 3.03125 1.644531 2.734375 2.5 2.734375 3.5 C 2.734375 4.863281 3.210938 5.925781 4.171875 6.6875 C 5.140625 7.457031 6.476562 7.84375 8.1875 7.84375 C 9.832031 7.84375 11.195312 7.46875 12.28125 6.71875 C 13.363281 5.96875 13.90625 5.007812 13.90625 3.84375 Z M 13.609375 -10.03125 C 14.460938 -11.644531 14.890625 -13.25 14.890625 -14.84375 C 14.828125 -16.863281 14.015625 -17.875 12.453125 -17.875 C 11.054688 -17.875 9.847656 -17.140625 8.828125 -15.671875 C 7.804688 -14.210938 7.3125 -12.5 7.34375 -10.53125 C 7.34375 -9.539062 7.566406 -8.757812 8.015625 -8.1875 C 8.472656 -7.625 9.097656 -7.34375 9.890625 -7.34375 C 11.398438 -7.34375 12.640625 -8.238281 13.609375 -10.03125 Z M 13.609375 -10.03125 "/></g></g></g><g fill="#303030" fill-opacity="1"><g transform="translate(136.721414, 40.568176)"><g><path d="M 20.21875 -4.4375 C 18.738281 -2.445312 17.613281 -1.144531 16.84375 -0.53125 C 16.082031 0.0820312 15.21875 0.390625 14.25 0.390625 C 13.539062 0.390625 13.03125 0.207031 12.71875 -0.15625 C 12.40625 -0.53125 12.25 -1.117188 12.25 -1.921875 C 12.25 -2.234375 12.472656 -3.300781 12.921875 -5.125 L 14.796875 -12.15625 C 15.203125 -13.6875 15.40625 -14.769531 15.40625 -15.40625 C 15.40625 -16.226562 15.0625 -16.640625 14.375 -16.640625 C 12.78125 -16.640625 10.675781 -14.617188 8.0625 -10.578125 C 7.125 -9.128906 6.425781 -7.84375 5.96875 -6.71875 C 5.519531 -5.59375 4.796875 -3.351562 3.796875 0 L 0.59375 0 L 4.6875 -14.921875 C 4.75 -15.210938 4.78125 -15.457031 4.78125 -15.65625 C 4.78125 -16.082031 4.59375 -16.375 4.21875 -16.53125 C 3.851562 -16.6875 3.128906 -16.78125 2.046875 -16.8125 L 2.046875 -17.484375 L 8.953125 -18.8125 L 9.078125 -18.71875 L 6.234375 -9.421875 C 8.421875 -12.835938 10.257812 -15.253906 11.75 -16.671875 C 13.238281 -18.097656 14.664062 -18.8125 16.03125 -18.8125 C 16.863281 -18.8125 17.539062 -18.566406 18.0625 -18.078125 C 18.59375 -17.597656 18.859375 -16.972656 18.859375 -16.203125 C 18.859375 -15.460938 18.726562 -14.65625 18.46875 -13.78125 L 16.03125 -4.984375 C 15.632812 -3.566406 15.4375 -2.671875 15.4375 -2.296875 C 15.4375 -1.847656 15.664062 -1.625 16.125 -1.625 C 16.664062 -1.625 17.53125 -2.375 18.71875 -3.875 C 18.925781 -4.101562 19.226562 -4.472656 19.625 -4.984375 Z M 20.21875 -4.4375 "/></g></g></g><g fill="#303030" fill-opacity="1"><g transform="translate(156.34035, 40.568176)"><g><path d="M 20.296875 -4.265625 C 18.710938 -2.328125 17.539062 -1.0625 16.78125 -0.46875 C 16.03125 0.125 15.226562 0.421875 14.375 0.421875 C 13.238281 0.421875 12.671875 -0.160156 12.671875 -1.328125 C 12.671875 -2.035156 13 -3.671875 13.65625 -6.234375 C 11.769531 -3.585938 10.242188 -1.804688 9.078125 -0.890625 C 7.921875 0.015625 6.585938 0.46875 5.078125 0.46875 C 3.710938 0.46875 2.644531 0.0507812 1.875 -0.78125 C 1.101562 -1.625 0.71875 -2.785156 0.71875 -4.265625 C 0.71875 -6.453125 1.335938 -8.691406 2.578125 -10.984375 C 3.816406 -13.273438 5.390625 -15.148438 7.296875 -16.609375 C 9.203125 -18.078125 11.078125 -18.8125 12.921875 -18.8125 C 14.828125 -18.8125 15.96875 -17.988281 16.34375 -16.34375 L 16.8125 -18.390625 L 16.9375 -18.515625 L 19.53125 -18.8125 L 19.828125 -18.6875 C 19.804688 -18.570312 19.722656 -18.269531 19.578125 -17.78125 C 17.046875 -8.570312 15.78125 -3.410156 15.78125 -2.296875 C 15.78125 -1.929688 15.976562 -1.75 16.375 -1.75 C 16.71875 -1.75 17.457031 -2.332031 18.59375 -3.5 L 19.796875 -4.6875 Z M 15.5625 -15.265625 C 15.5625 -16.003906 15.34375 -16.613281 14.90625 -17.09375 C 14.46875 -17.582031 13.894531 -17.84375 13.1875 -17.875 C 11.363281 -18.019531 9.5 -16.710938 7.59375 -13.953125 C 6.707031 -12.609375 5.9375 -11.035156 5.28125 -9.234375 C 4.632812 -7.429688 4.3125 -5.945312 4.3125 -4.78125 C 4.3125 -3.8125 4.53125 -3.039062 4.96875 -2.46875 C 5.40625 -1.90625 6.007812 -1.625 6.78125 -1.625 C 8.144531 -1.625 9.382812 -2.25 10.5 -3.5 C 11.945312 -5.09375 13.148438 -7.003906 14.109375 -9.234375 C 15.078125 -11.460938 15.5625 -13.472656 15.5625 -15.265625 Z M 15.5625 -15.265625 "/></g></g></g><g fill="#303030" fill-opacity="1"><g transform="translate(175.959287, 40.568176)"><g><path d="M 15.609375 -4.09375 C 14.304688 -2.445312 13.035156 -1.273438 11.796875 -0.578125 C 10.554688 0.117188 9.140625 0.46875 7.546875 0.46875 C 5.554688 0.46875 4.015625 -0.09375 2.921875 -1.21875 C 1.828125 -2.34375 1.28125 -3.910156 1.28125 -5.921875 C 1.28125 -9.253906 2.546875 -12.234375 5.078125 -14.859375 C 7.609375 -17.492188 10.46875 -18.8125 13.65625 -18.8125 C 14.957031 -18.8125 16.023438 -18.484375 16.859375 -17.828125 C 17.703125 -17.171875 18.125 -16.347656 18.125 -15.359375 C 18.125 -14.785156 17.929688 -14.3125 17.546875 -13.9375 C 17.171875 -13.570312 16.679688 -13.390625 16.078125 -13.390625 C 14.972656 -13.390625 14.421875 -13.929688 14.421875 -15.015625 C 14.421875 -15.359375 14.546875 -15.769531 14.796875 -16.25 C 14.972656 -16.5625 15.0625 -16.832031 15.0625 -17.0625 C 15.0625 -17.632812 14.535156 -17.921875 13.484375 -17.921875 C 11.691406 -17.921875 10.140625 -17.238281 8.828125 -15.875 C 7.628906 -14.613281 6.679688 -13.09375 5.984375 -11.3125 C 5.296875 -9.539062 4.953125 -7.742188 4.953125 -5.921875 C 4.953125 -4.390625 5.289062 -3.195312 5.96875 -2.34375 C 6.65625 -1.488281 7.609375 -1.0625 8.828125 -1.0625 C 9.878906 -1.0625 10.867188 -1.320312 11.796875 -1.84375 C 12.722656 -2.375 13.765625 -3.265625 14.921875 -4.515625 Z M 15.609375 -4.09375 "/></g></g></g><g fill="#303030" fill-opacity="1"><g transform="translate(193.189799, 40.568176)"><g><path d="M 10.03125 -4.390625 C 8.800781 -2.597656 7.742188 -1.335938 6.859375 -0.609375 C 5.984375 0.109375 5.046875 0.46875 4.046875 0.46875 C 2.742188 0.46875 2.09375 -0.34375 2.09375 -1.96875 C 2.09375 -2.726562 2.40625 -4.273438 3.03125 -6.609375 L 5.078125 -14.15625 C 5.328125 -14.957031 5.453125 -15.582031 5.453125 -16.03125 C 5.453125 -16.457031 5.296875 -16.726562 4.984375 -16.84375 C 4.671875 -16.957031 3.929688 -17.03125 2.765625 -17.0625 L 2.765625 -17.75 C 4.078125 -17.863281 6.351562 -18.21875 9.59375 -18.8125 L 9.71875 -18.71875 L 5.96875 -4.984375 C 5.519531 -3.484375 5.296875 -2.546875 5.296875 -2.171875 C 5.296875 -2.003906 5.363281 -1.851562 5.5 -1.71875 C 5.644531 -1.59375 5.800781 -1.53125 5.96875 -1.53125 C 6.625 -1.53125 7.789062 -2.640625 9.46875 -4.859375 Z M 11.765625 -25.078125 C 11.765625 -24.484375 11.554688 -23.972656 11.140625 -23.546875 C 10.734375 -23.117188 10.25 -22.90625 9.6875 -22.90625 C 9.0625 -22.90625 8.5625 -23.109375 8.1875 -23.515625 C 7.820312 -23.929688 7.640625 -24.484375 7.640625 -25.171875 C 7.640625 -25.816406 7.828125 -26.351562 8.203125 -26.78125 C 8.585938 -27.207031 9.066406 -27.421875 9.640625 -27.421875 C 10.210938 -27.421875 10.707031 -27.1875 11.125 -26.71875 C 11.550781 -26.25 11.765625 -25.703125 11.765625 -25.078125 Z M 11.765625 -25.078125 "/></g></g></g><g fill="#303030" fill-opacity="1"><g transform="translate(203.340349, 40.568176)"><g><path d="M 19.96875 -12.84375 C 19.96875 -11.21875 19.566406 -9.554688 18.765625 -7.859375 C 17.972656 -6.171875 16.863281 -4.628906 15.4375 -3.234375 C 12.96875 -0.765625 10.296875 0.46875 7.421875 0.46875 C 5.484375 0.46875 3.953125 -0.0625 2.828125 -1.125 C 1.710938 -2.195312 1.15625 -3.65625 1.15625 -5.5 C 1.15625 -7.800781 1.867188 -10.078125 3.296875 -12.328125 C 4.734375 -14.578125 6.578125 -16.296875 8.828125 -17.484375 C 10.472656 -18.367188 12.148438 -18.8125 13.859375 -18.8125 C 15.679688 -18.8125 17.15625 -18.253906 18.28125 -17.140625 C 19.40625 -16.035156 19.96875 -14.601562 19.96875 -12.84375 Z M 16.375 -13.90625 C 16.375 -15.125 16.097656 -16.097656 15.546875 -16.828125 C 14.992188 -17.554688 14.257812 -17.921875 13.34375 -17.921875 C 11.445312 -17.921875 9.628906 -16.625 7.890625 -14.03125 C 5.785156 -10.820312 4.734375 -7.582031 4.734375 -4.3125 C 4.734375 -3.144531 5.035156 -2.203125 5.640625 -1.484375 C 6.253906 -0.773438 7.0625 -0.421875 8.0625 -0.421875 C 9.882812 -0.421875 11.601562 -1.585938 13.21875 -3.921875 C 14.132812 -5.316406 14.890625 -6.945312 15.484375 -8.8125 C 16.078125 -10.675781 16.375 -12.375 16.375 -13.90625 Z M 16.375 -13.90625 "/></g></g></g><g fill="#303030" fill-opacity="1"><g transform="translate(5.832806, 76.018725)"><g><path d="M 28.046875 -13.296875 C 26.890625 -13.191406 26.140625 -12.945312 25.796875 -12.5625 C 25.453125 -12.175781 25.28125 -11.40625 25.28125 -10.25 L 25.28125 -2.21875 C 24.488281 -1.53125 23.054688 -0.894531 20.984375 -0.3125 C 18.910156 0.257812 17.03125 0.546875 15.34375 0.546875 C 10.894531 0.546875 7.296875 -0.859375 4.546875 -3.671875 C 2.359375 -5.972656 1.265625 -9.035156 1.265625 -12.859375 C 1.265625 -16.890625 2.535156 -20.210938 5.078125 -22.828125 C 7.628906 -25.441406 10.878906 -26.75 14.828125 -26.75 C 16.597656 -26.75 18.394531 -26.441406 20.21875 -25.828125 C 20.90625 -25.566406 21.484375 -25.4375 21.953125 -25.4375 C 22.378906 -25.4375 22.75 -25.5625 23.0625 -25.8125 C 23.382812 -26.0625 23.609375 -26.375 23.734375 -26.75 L 24.609375 -26.75 L 24.921875 -18.390625 L 24.015625 -18.390625 C 23.140625 -20.523438 22.203125 -22.054688 21.203125 -22.984375 C 19.617188 -24.429688 17.722656 -25.15625 15.515625 -25.15625 C 12.710938 -25.15625 10.414062 -24.15625 8.625 -22.15625 C 7.75 -21.175781 7.054688 -19.847656 6.546875 -18.171875 C 6.035156 -16.503906 5.78125 -14.742188 5.78125 -12.890625 C 5.78125 -9.222656 6.707031 -6.328125 8.5625 -4.203125 C 10.425781 -2.085938 12.96875 -1.03125 16.1875 -1.03125 C 17.601562 -1.03125 18.832031 -1.257812 19.875 -1.71875 C 20.914062 -2.175781 21.4375 -2.722656 21.4375 -3.359375 L 21.4375 -9.765625 C 21.4375 -11.398438 21.160156 -12.390625 20.609375 -12.734375 C 20.191406 -13.003906 19.3125 -13.191406 17.96875 -13.296875 L 17.96875 -14 L 28.046875 -14 Z M 28.046875 -13.296875 "/></g></g></g><g fill="#303030" fill-opacity="1"><g transform="translate(33.995321, 76.018725)"><g><path d="M 18.59375 -9.25 C 18.59375 -6.507812 17.75 -4.21875 16.0625 -2.375 C 14.375 -0.53125 12.289062 0.390625 9.8125 0.390625 C 7.332031 0.390625 5.265625 -0.492188 3.609375 -2.265625 C 1.960938 -4.046875 1.140625 -6.269531 1.140625 -8.9375 C 1.140625 -11.65625 1.953125 -13.878906 3.578125 -15.609375 C 5.203125 -17.335938 7.304688 -18.203125 9.890625 -18.203125 C 12.421875 -18.203125 14.503906 -17.359375 16.140625 -15.671875 C 17.773438 -13.984375 18.59375 -11.84375 18.59375 -9.25 Z M 15.03125 -7.875 C 15.03125 -10.59375 14.503906 -12.804688 13.453125 -14.515625 C 12.398438 -16.234375 11.039062 -17.09375 9.375 -17.09375 C 7.976562 -17.09375 6.847656 -16.523438 5.984375 -15.390625 C 5.128906 -14.253906 4.703125 -12.75 4.703125 -10.875 C 4.703125 -7.945312 5.285156 -5.40625 6.453125 -3.25 C 7.347656 -1.5625 8.625 -0.71875 10.28125 -0.71875 C 11.757812 -0.71875 12.921875 -1.347656 13.765625 -2.609375 C 14.609375 -3.878906 15.03125 -5.632812 15.03125 -7.875 Z M 15.03125 -7.875 "/></g></g></g><g fill="#303030" fill-opacity="1"><g transform="translate(53.376821, 76.018725)"><g><path d="M 19.421875 -1.65625 L 13.609375 0.390625 L 13.453125 0.28125 L 13.453125 -2.25 C 12.179688 -0.488281 10.492188 0.390625 8.390625 0.390625 C 6.203125 0.390625 4.429688 -0.390625 3.078125 -1.953125 C 1.734375 -3.523438 1.0625 -5.578125 1.0625 -8.109375 C 1.0625 -10.898438 1.863281 -13.28125 3.46875 -15.25 C 5.082031 -17.21875 7.023438 -18.203125 9.296875 -18.203125 C 10.722656 -18.203125 12.109375 -17.632812 13.453125 -16.5 L 13.453125 -22.671875 C 13.453125 -23.484375 13.332031 -24.019531 13.09375 -24.28125 C 12.851562 -24.550781 12.363281 -24.6875 11.625 -24.6875 C 11.257812 -24.6875 10.972656 -24.671875 10.765625 -24.640625 L 10.765625 -25.28125 C 13.160156 -25.914062 15.097656 -26.492188 16.578125 -27.015625 L 16.78125 -26.9375 L 16.78125 -4.515625 C 16.78125 -3.585938 16.890625 -2.976562 17.109375 -2.6875 C 17.335938 -2.394531 17.804688 -2.25 18.515625 -2.25 C 18.648438 -2.25 18.953125 -2.265625 19.421875 -2.296875 Z M 13.453125 -4.03125 L 13.453125 -13.140625 C 13.453125 -14.191406 13.039062 -15.113281 12.21875 -15.90625 C 11.40625 -16.695312 10.472656 -17.09375 9.421875 -17.09375 C 7.910156 -17.09375 6.707031 -16.421875 5.8125 -15.078125 C 4.914062 -13.734375 4.46875 -11.9375 4.46875 -9.6875 C 4.46875 -7.257812 4.96875 -5.3125 5.96875 -3.84375 C 6.976562 -2.382812 8.300781 -1.65625 9.9375 -1.65625 C 11.113281 -1.65625 12.0625 -2.050781 12.78125 -2.84375 C 13.226562 -3.34375 13.453125 -3.738281 13.453125 -4.03125 Z M 13.453125 -4.03125 "/></g></g></g><g fill="#303030" fill-opacity="1"><g transform="translate(72.75832, 76.018725)"><g><path d="M 18.59375 -9.25 C 18.59375 -6.507812 17.75 -4.21875 16.0625 -2.375 C 14.375 -0.53125 12.289062 0.390625 9.8125 0.390625 C 7.332031 0.390625 5.265625 -0.492188 3.609375 -2.265625 C 1.960938 -4.046875 1.140625 -6.269531 1.140625 -8.9375 C 1.140625 -11.65625 1.953125 -13.878906 3.578125 -15.609375 C 5.203125 -17.335938 7.304688 -18.203125 9.890625 -18.203125 C 12.421875 -18.203125 14.503906 -17.359375 16.140625 -15.671875 C 17.773438 -13.984375 18.59375 -11.84375 18.59375 -9.25 Z M 15.03125 -7.875 C 15.03125 -10.59375 14.503906 -12.804688 13.453125 -14.515625 C 12.398438 -16.234375 11.039062 -17.09375 9.375 -17.09375 C 7.976562 -17.09375 6.847656 -16.523438 5.984375 -15.390625 C 5.128906 -14.253906 4.703125 -12.75 4.703125 -10.875 C 4.703125 -7.945312 5.285156 -5.40625 6.453125 -3.25 C 7.347656 -1.5625 8.625 -0.71875 10.28125 -0.71875 C 11.757812 -0.71875 12.921875 -1.347656 13.765625 -2.609375 C 14.609375 -3.878906 15.03125 -5.632812 15.03125 -7.875 Z M 15.03125 -7.875 "/></g></g></g><g fill="#303030" fill-opacity="1"><g transform="translate(92.139822, 76.018725)"><g><path d="M 18.796875 -17.203125 C 18.316406 -17.148438 17.941406 -17 17.671875 -16.75 C 17.410156 -16.5 17.148438 -16.054688 16.890625 -15.421875 L 10.796875 0.71875 C 9.742188 3.5625 8.695312 5.585938 7.65625 6.796875 C 6.613281 8.015625 5.429688 8.625 4.109375 8.625 C 3.265625 8.625 2.566406 8.40625 2.015625 7.96875 C 1.460938 7.53125 1.1875 6.984375 1.1875 6.328125 C 1.1875 5.859375 1.359375 5.453125 1.703125 5.109375 C 2.046875 4.765625 2.441406 4.59375 2.890625 4.59375 C 3.492188 4.59375 4.191406 4.738281 4.984375 5.03125 C 5.347656 5.207031 5.675781 5.296875 5.96875 5.296875 C 6.257812 5.296875 6.597656 5.125 6.984375 4.78125 C 7.367188 4.4375 7.691406 4.015625 7.953125 3.515625 C 8.296875 2.941406 8.644531 2.160156 9 1.171875 C 9.351562 0.179688 9.53125 -0.457031 9.53125 -0.75 C 9.53125 -1.007812 9.382812 -1.5 9.09375 -2.21875 L 2.578125 -15.984375 C 2.253906 -16.671875 1.578125 -17.09375 0.546875 -17.25 L 0.546875 -17.796875 L 8.703125 -17.796875 L 8.703125 -17.203125 C 7.859375 -17.179688 7.265625 -17.09375 6.921875 -16.9375 C 6.578125 -16.78125 6.40625 -16.515625 6.40625 -16.140625 C 6.40625 -15.742188 6.539062 -15.242188 6.8125 -14.640625 L 11.359375 -4.625 L 15.1875 -15.546875 C 15.289062 -15.785156 15.34375 -16.007812 15.34375 -16.21875 C 15.34375 -16.875 14.710938 -17.203125 13.453125 -17.203125 L 13.453125 -17.796875 L 18.796875 -17.796875 Z M 18.796875 -17.203125 "/></g></g></g><g fill="#303030" fill-opacity="1"><g transform="translate(111.521325, 76.018725)"><g/></g></g><g fill="#303030" fill-opacity="1"><g transform="translate(121.014294, 76.018725)"><g><path d="M 28.046875 -13.296875 C 26.890625 -13.191406 26.140625 -12.945312 25.796875 -12.5625 C 25.453125 -12.175781 25.28125 -11.40625 25.28125 -10.25 L 25.28125 -2.21875 C 24.488281 -1.53125 23.054688 -0.894531 20.984375 -0.3125 C 18.910156 0.257812 17.03125 0.546875 15.34375 0.546875 C 10.894531 0.546875 7.296875 -0.859375 4.546875 -3.671875 C 2.359375 -5.972656 1.265625 -9.035156 1.265625 -12.859375 C 1.265625 -16.890625 2.535156 -20.210938 5.078125 -22.828125 C 7.628906 -25.441406 10.878906 -26.75 14.828125 -26.75 C 16.597656 -26.75 18.394531 -26.441406 20.21875 -25.828125 C 20.90625 -25.566406 21.484375 -25.4375 21.953125 -25.4375 C 22.378906 -25.4375 22.75 -25.5625 23.0625 -25.8125 C 23.382812 -26.0625 23.609375 -26.375 23.734375 -26.75 L 24.609375 -26.75 L 24.921875 -18.390625 L 24.015625 -18.390625 C 23.140625 -20.523438 22.203125 -22.054688 21.203125 -22.984375 C 19.617188 -24.429688 17.722656 -25.15625 15.515625 -25.15625 C 12.710938 -25.15625 10.414062 -24.15625 8.625 -22.15625 C 7.75 -21.175781 7.054688 -19.847656 6.546875 -18.171875 C 6.035156 -16.503906 5.78125 -14.742188 5.78125 -12.890625 C 5.78125 -9.222656 6.707031 -6.328125 8.5625 -4.203125 C 10.425781 -2.085938 12.96875 -1.03125 16.1875 -1.03125 C 17.601562 -1.03125 18.832031 -1.257812 19.875 -1.71875 C 20.914062 -2.175781 21.4375 -2.722656 21.4375 -3.359375 L 21.4375 -9.765625 C 21.4375 -11.398438 21.160156 -12.390625 20.609375 -12.734375 C 20.191406 -13.003906 19.3125 -13.191406 17.96875 -13.296875 L 17.96875 -14 L 28.046875 -14 Z M 28.046875 -13.296875 "/></g></g></g><g fill="#303030" fill-opacity="1"><g transform="translate(149.176811, 76.018725)"><g><path d="M 13.25 -16.109375 C 13.25 -15.546875 13.109375 -15.109375 12.828125 -14.796875 C 12.554688 -14.484375 12.179688 -14.328125 11.703125 -14.328125 C 11.253906 -14.328125 10.726562 -14.585938 10.125 -15.109375 C 9.707031 -15.503906 9.363281 -15.703125 9.09375 -15.703125 C 8.570312 -15.703125 7.976562 -15.316406 7.3125 -14.546875 C 6.65625 -13.785156 6.328125 -13.09375 6.328125 -12.46875 L 6.328125 -3.5625 C 6.328125 -2.425781 6.550781 -1.660156 7 -1.265625 C 7.445312 -0.867188 8.34375 -0.644531 9.6875 -0.59375 L 9.6875 0 L 0.203125 0 L 0.203125 -0.59375 C 1.460938 -0.832031 2.242188 -1.09375 2.546875 -1.375 C 2.847656 -1.664062 3 -2.316406 3 -3.328125 L 3 -13.21875 C 3 -14.082031 2.898438 -14.691406 2.703125 -15.046875 C 2.503906 -15.410156 2.15625 -15.59375 1.65625 -15.59375 C 1.238281 -15.59375 0.78125 -15.535156 0.28125 -15.421875 L 0.28125 -16.0625 C 2.382812 -16.75 4.332031 -17.460938 6.125 -18.203125 L 6.328125 -18.125 L 6.328125 -14.484375 C 7.304688 -15.878906 8.132812 -16.847656 8.8125 -17.390625 C 9.5 -17.929688 10.253906 -18.203125 11.078125 -18.203125 C 11.765625 -18.203125 12.296875 -18.015625 12.671875 -17.640625 C 13.054688 -17.273438 13.25 -16.765625 13.25 -16.109375 Z M 13.25 -16.109375 "/></g></g></g><g fill="#303030" fill-opacity="1"><g transform="translate(161.952768, 76.018725)"><g><path d="M 17.484375 -1.578125 C 16.796875 -0.816406 16.195312 -0.296875 15.6875 -0.015625 C 15.175781 0.253906 14.585938 0.390625 13.921875 0.390625 C 13.109375 0.390625 12.507812 0.175781 12.125 -0.25 C 11.738281 -0.6875 11.492188 -1.4375 11.390625 -2.5 C 9.117188 -0.570312 7.195312 0.390625 5.625 0.390625 C 4.40625 0.390625 3.40625 -0.00390625 2.625 -0.796875 C 1.851562 -1.585938 1.46875 -2.601562 1.46875 -3.84375 C 1.46875 -5.257812 1.941406 -6.40625 2.890625 -7.28125 C 3.734375 -8.019531 4.582031 -8.601562 5.4375 -9.03125 C 6.289062 -9.46875 8.265625 -10.304688 11.359375 -11.546875 L 11.359375 -13.96875 C 11.359375 -16.15625 10.351562 -17.25 8.34375 -17.25 C 7.550781 -17.25 6.878906 -17.054688 6.328125 -16.671875 C 5.773438 -16.296875 5.5 -15.84375 5.5 -15.3125 C 5.5 -15.019531 5.539062 -14.703125 5.625 -14.359375 C 5.675781 -13.992188 5.703125 -13.785156 5.703125 -13.734375 C 5.703125 -13.285156 5.519531 -12.894531 5.15625 -12.5625 C 4.800781 -12.226562 4.382812 -12.0625 3.90625 -12.0625 C 3.4375 -12.0625 3.035156 -12.234375 2.703125 -12.578125 C 2.378906 -12.921875 2.21875 -13.316406 2.21875 -13.765625 C 2.21875 -14.847656 2.757812 -15.835938 3.84375 -16.734375 C 5.03125 -17.710938 6.703125 -18.203125 8.859375 -18.203125 C 11.316406 -18.203125 12.96875 -17.4375 13.8125 -15.90625 C 14.3125 -15.082031 14.5625 -13.738281 14.5625 -11.875 L 14.5625 -4.15625 C 14.5625 -3.28125 14.644531 -2.675781 14.8125 -2.34375 C 14.988281 -2.019531 15.300781 -1.859375 15.75 -1.859375 C 16.300781 -1.859375 16.878906 -2.109375 17.484375 -2.609375 Z M 11.359375 -4.859375 L 11.359375 -10.609375 C 8.984375 -9.734375 7.316406 -8.882812 6.359375 -8.0625 C 5.410156 -7.25 4.9375 -6.265625 4.9375 -5.109375 L 4.9375 -4.9375 C 4.9375 -4.09375 5.179688 -3.375 5.671875 -2.78125 C 6.160156 -2.195312 6.75 -1.90625 7.4375 -1.90625 C 8.363281 -1.90625 9.328125 -2.191406 10.328125 -2.765625 C 10.742188 -3.035156 11.019531 -3.300781 11.15625 -3.5625 C 11.289062 -3.820312 11.359375 -4.253906 11.359375 -4.859375 Z M 11.359375 -4.859375 "/></g></g></g><g fill="#303030" fill-opacity="1"><g transform="translate(179.119232, 76.018725)"><g><path d="M 19.1875 0 L 10.953125 0 L 10.953125 -0.59375 C 11.960938 -0.675781 12.628906 -0.941406 12.953125 -1.390625 C 13.285156 -1.835938 13.453125 -2.679688 13.453125 -3.921875 L 13.453125 -12.1875 C 13.453125 -14.738281 12.488281 -16.015625 10.5625 -16.015625 C 9.90625 -16.015625 9.296875 -15.863281 8.734375 -15.5625 C 8.179688 -15.257812 7.429688 -14.660156 6.484375 -13.765625 L 6.484375 -2.65625 C 6.484375 -1.9375 6.664062 -1.429688 7.03125 -1.140625 C 7.40625 -0.859375 8.09375 -0.675781 9.09375 -0.59375 L 9.09375 0 L 0.71875 0 L 0.71875 -0.59375 C 1.71875 -0.675781 2.375 -0.90625 2.6875 -1.28125 C 3.007812 -1.664062 3.171875 -2.425781 3.171875 -3.5625 L 3.171875 -13.375 C 3.171875 -14.34375 3.0625 -15.003906 2.84375 -15.359375 C 2.632812 -15.722656 2.253906 -15.90625 1.703125 -15.90625 C 1.203125 -15.90625 0.847656 -15.851562 0.640625 -15.75 L 0.640625 -16.421875 C 2.585938 -16.992188 4.40625 -17.585938 6.09375 -18.203125 L 6.375 -18.125 L 6.375 -15 C 7.71875 -16.257812 8.773438 -17.109375 9.546875 -17.546875 C 10.328125 -17.984375 11.179688 -18.203125 12.109375 -18.203125 C 13.554688 -18.203125 14.695312 -17.679688 15.53125 -16.640625 C 16.363281 -15.597656 16.78125 -14.140625 16.78125 -12.265625 L 16.78125 -3.203125 C 16.78125 -2.222656 16.9375 -1.566406 17.25 -1.234375 C 17.5625 -0.910156 18.207031 -0.695312 19.1875 -0.59375 Z M 19.1875 0 "/></g></g></g><g fill="#303030" fill-opacity="1"><g transform="translate(198.500735, 76.018725)"><g><path d="M 19.421875 -1.65625 L 13.609375 0.390625 L 13.453125 0.28125 L 13.453125 -2.25 C 12.179688 -0.488281 10.492188 0.390625 8.390625 0.390625 C 6.203125 0.390625 4.429688 -0.390625 3.078125 -1.953125 C 1.734375 -3.523438 1.0625 -5.578125 1.0625 -8.109375 C 1.0625 -10.898438 1.863281 -13.28125 3.46875 -15.25 C 5.082031 -17.21875 7.023438 -18.203125 9.296875 -18.203125 C 10.722656 -18.203125 12.109375 -17.632812 13.453125 -16.5 L 13.453125 -22.671875 C 13.453125 -23.484375 13.332031 -24.019531 13.09375 -24.28125 C 12.851562 -24.550781 12.363281 -24.6875 11.625 -24.6875 C 11.257812 -24.6875 10.972656 -24.671875 10.765625 -24.640625 L 10.765625 -25.28125 C 13.160156 -25.914062 15.097656 -26.492188 16.578125 -27.015625 L 16.78125 -26.9375 L 16.78125 -4.515625 C 16.78125 -3.585938 16.890625 -2.976562 17.109375 -2.6875 C 17.335938 -2.394531 17.804688 -2.25 18.515625 -2.25 C 18.648438 -2.25 18.953125 -2.265625 19.421875 -2.296875 Z M 13.453125 -4.03125 L 13.453125 -13.140625 C 13.453125 -14.191406 13.039062 -15.113281 12.21875 -15.90625 C 11.40625 -16.695312 10.472656 -17.09375 9.421875 -17.09375 C 7.910156 -17.09375 6.707031 -16.421875 5.8125 -15.078125 C 4.914062 -13.734375 4.46875 -11.9375 4.46875 -9.6875 C 4.46875 -7.257812 4.96875 -5.3125 5.96875 -3.84375 C 6.976562 -2.382812 8.300781 -1.65625 9.9375 -1.65625 C 11.113281 -1.65625 12.0625 -2.050781 12.78125 -2.84375 C 13.226562 -3.34375 13.453125 -3.738281 13.453125 -4.03125 Z M 13.453125 -4.03125 "/></g></g></g><g fill="#303030" fill-opacity="1"><g transform="translate(217.882237, 76.018725)"><g><path d="M 18.59375 -9.25 C 18.59375 -6.507812 17.75 -4.21875 16.0625 -2.375 C 14.375 -0.53125 12.289062 0.390625 9.8125 0.390625 C 7.332031 0.390625 5.265625 -0.492188 3.609375 -2.265625 C 1.960938 -4.046875 1.140625 -6.269531 1.140625 -8.9375 C 1.140625 -11.65625 1.953125 -13.878906 3.578125 -15.609375 C 5.203125 -17.335938 7.304688 -18.203125 9.890625 -18.203125 C 12.421875 -18.203125 14.503906 -17.359375 16.140625 -15.671875 C 17.773438 -13.984375 18.59375 -11.84375 18.59375 -9.25 Z M 15.03125 -7.875 C 15.03125 -10.59375 14.503906 -12.804688 13.453125 -14.515625 C 12.398438 -16.234375 11.039062 -17.09375 9.375 -17.09375 C 7.976562 -17.09375 6.847656 -16.523438 5.984375 -15.390625 C 5.128906 -14.253906 4.703125 -12.75 4.703125 -10.875 C 4.703125 -7.945312 5.285156 -5.40625 6.453125 -3.25 C 7.347656 -1.5625 8.625 -0.71875 10.28125 -0.71875 C 11.757812 -0.71875 12.921875 -1.347656 13.765625 -2.609375 C 14.609375 -3.878906 15.03125 -5.632812 15.03125 -7.875 Z M 15.03125 -7.875 "/></g></g></g><path stroke-linecap="round" transform="matrix(0.745192, 0.000000000000000042, -0.000000000000000042, 0.745192, 27.833074, 88.762499)" fill="none" stroke-linejoin="miter" d="M 0.501827 0.502179 L 251.564345 0.502179 " stroke="#303030" stroke-width="1" stroke-opacity="1" stroke-miterlimit="4"/><g fill="#303030" fill-opacity="1"><g transform="translate(39.828053, 105.398428)"><g><path d="M 0.6875 -7.453125 L 5.59375 -7.453125 L 5.59375 -6.1875 L 2.125 -6.1875 L 2.125 -4.265625 L 5.328125 -4.265625 L 5.328125 -2.984375 L 2.125 -2.984375 L 2.125 0 L 0.6875 0 Z M 0.6875 -7.453125 "/></g></g></g><g fill="#303030" fill-opacity="1"><g transform="translate(49.088812, 105.398428)"><g><path d="M 0.6875 -1.171875 L 2.03125 -1.171875 L 2.03125 -4.46875 L 0.90625 -4.46875 L 0.90625 -5.640625 L 2.875 -5.640625 L 3.09375 -4.90625 L 3.25 -4.90625 C 3.351562 -5.164062 3.53125 -5.351562 3.78125 -5.46875 C 4.039062 -5.582031 4.304688 -5.640625 4.578125 -5.640625 L 5.703125 -5.640625 L 5.703125 -4.421875 L 4.734375 -4.421875 C 4.285156 -4.421875 3.929688 -4.296875 3.671875 -4.046875 C 3.421875 -3.796875 3.296875 -3.457031 3.296875 -3.03125 L 3.296875 -1.171875 L 5.171875 -1.171875 L 5.171875 0 L 0.6875 0 Z M 0.6875 -1.171875 "/></g></g></g><g fill="#303030" fill-opacity="1"><g transform="translate(58.34957, 105.398428)"><g><path d="M 3.203125 0.109375 C 2.796875 0.109375 2.425781 0.0390625 2.09375 -0.09375 C 1.757812 -0.226562 1.472656 -0.421875 1.234375 -0.671875 C 0.992188 -0.929688 0.804688 -1.238281 0.671875 -1.59375 C 0.546875 -1.957031 0.484375 -2.367188 0.484375 -2.828125 C 0.484375 -3.273438 0.546875 -3.679688 0.671875 -4.046875 C 0.804688 -4.410156 0.992188 -4.71875 1.234375 -4.96875 C 1.472656 -5.21875 1.757812 -5.410156 2.09375 -5.546875 C 2.425781 -5.679688 2.796875 -5.75 3.203125 -5.75 C 3.597656 -5.75 3.960938 -5.679688 4.296875 -5.546875 C 4.628906 -5.410156 4.914062 -5.21875 5.15625 -4.96875 C 5.394531 -4.71875 5.582031 -4.410156 5.71875 -4.046875 C 5.851562 -3.679688 5.921875 -3.273438 5.921875 -2.828125 C 5.921875 -2.367188 5.851562 -1.957031 5.71875 -1.59375 C 5.582031 -1.238281 5.394531 -0.929688 5.15625 -0.671875 C 4.914062 -0.421875 4.628906 -0.226562 4.296875 -0.09375 C 3.960938 0.0390625 3.597656 0.109375 3.203125 0.109375 Z M 3.203125 -1.0625 C 3.628906 -1.0625 3.972656 -1.207031 4.234375 -1.5 C 4.503906 -1.789062 4.640625 -2.234375 4.640625 -2.828125 C 4.640625 -3.410156 4.503906 -3.847656 4.234375 -4.140625 C 3.972656 -4.429688 3.628906 -4.578125 3.203125 -4.578125 C 2.773438 -4.578125 2.425781 -4.429688 2.15625 -4.140625 C 1.894531 -3.847656 1.765625 -3.410156 1.765625 -2.828125 C 1.765625 -2.234375 1.894531 -1.789062 2.15625 -1.5 C 2.425781 -1.207031 2.773438 -1.0625 3.203125 -1.0625 Z M 3.203125 -1.0625 "/></g></g></g><g fill="#303030" fill-opacity="1"><g transform="translate(67.610329, 105.398428)"><g><path d="M 0.796875 -5.640625 L 1.921875 -5.640625 L 2.03125 -5.171875 L 2.078125 -5.171875 C 2.242188 -5.359375 2.445312 -5.5 2.6875 -5.59375 C 2.9375 -5.695312 3.210938 -5.75 3.515625 -5.75 C 4.148438 -5.75 4.660156 -5.550781 5.046875 -5.15625 C 5.441406 -4.769531 5.640625 -4.207031 5.640625 -3.46875 L 5.640625 0 L 4.375 0 L 4.375 -3.40625 C 4.375 -3.78125 4.265625 -4.066406 4.046875 -4.265625 C 3.835938 -4.472656 3.570312 -4.578125 3.25 -4.578125 C 3.082031 -4.578125 2.925781 -4.546875 2.78125 -4.484375 C 2.644531 -4.429688 2.523438 -4.351562 2.421875 -4.25 C 2.316406 -4.15625 2.234375 -4.035156 2.171875 -3.890625 C 2.109375 -3.742188 2.078125 -3.582031 2.078125 -3.40625 L 2.078125 0 L 0.796875 0 Z M 0.796875 -5.640625 "/></g></g></g><g fill="#303030" fill-opacity="1"><g transform="translate(76.871087, 105.398428)"><g><path d="M 3.84375 0.109375 C 3.53125 0.109375 3.242188 0.0546875 2.984375 -0.046875 C 2.734375 -0.148438 2.515625 -0.296875 2.328125 -0.484375 C 2.148438 -0.671875 2.007812 -0.898438 1.90625 -1.171875 C 1.8125 -1.441406 1.765625 -1.742188 1.765625 -2.078125 L 1.765625 -4.46875 L 0.375 -4.46875 L 0.375 -5.640625 L 1.765625 -5.640625 L 1.96875 -7.140625 L 3.03125 -7.140625 L 3.03125 -5.640625 L 5.109375 -5.640625 L 5.109375 -4.46875 L 3.03125 -4.46875 L 3.03125 -2.078125 C 3.03125 -1.734375 3.101562 -1.476562 3.25 -1.3125 C 3.394531 -1.144531 3.59375 -1.0625 3.84375 -1.0625 C 4.082031 -1.0625 4.273438 -1.125 4.421875 -1.25 C 4.566406 -1.375 4.65625 -1.597656 4.6875 -1.921875 L 5.96875 -1.921875 C 5.96875 -1.609375 5.910156 -1.328125 5.796875 -1.078125 C 5.691406 -0.835938 5.546875 -0.628906 5.359375 -0.453125 C 5.171875 -0.273438 4.945312 -0.132812 4.6875 -0.03125 C 4.425781 0.0625 4.144531 0.109375 3.84375 0.109375 Z M 3.84375 0.109375 "/></g></g></g><g fill="#303030" fill-opacity="1"><g transform="translate(86.131846, 105.398428)"><g><path d="M 3.25 0.109375 C 2.820312 0.109375 2.4375 0.046875 2.09375 -0.078125 C 1.757812 -0.210938 1.46875 -0.40625 1.21875 -0.65625 C 0.976562 -0.90625 0.796875 -1.210938 0.671875 -1.578125 C 0.546875 -1.941406 0.484375 -2.359375 0.484375 -2.828125 C 0.484375 -3.296875 0.546875 -3.707031 0.671875 -4.0625 C 0.796875 -4.425781 0.976562 -4.734375 1.21875 -4.984375 C 1.46875 -5.234375 1.757812 -5.421875 2.09375 -5.546875 C 2.4375 -5.679688 2.820312 -5.75 3.25 -5.75 C 3.644531 -5.75 4.003906 -5.6875 4.328125 -5.5625 C 4.660156 -5.4375 4.941406 -5.25 5.171875 -5 C 5.410156 -4.757812 5.59375 -4.46875 5.71875 -4.125 C 5.851562 -3.789062 5.921875 -3.410156 5.921875 -2.984375 C 5.921875 -2.898438 5.914062 -2.820312 5.90625 -2.75 C 5.894531 -2.6875 5.882812 -2.625 5.875 -2.5625 C 5.875 -2.5 5.867188 -2.441406 5.859375 -2.390625 L 1.765625 -2.390625 C 1.816406 -2.015625 1.960938 -1.695312 2.203125 -1.4375 C 2.441406 -1.1875 2.773438 -1.0625 3.203125 -1.0625 C 3.546875 -1.0625 3.8125 -1.125 4 -1.25 C 4.195312 -1.382812 4.332031 -1.535156 4.40625 -1.703125 L 5.6875 -1.703125 C 5.632812 -1.503906 5.550781 -1.296875 5.4375 -1.078125 C 5.332031 -0.867188 5.179688 -0.675781 4.984375 -0.5 C 4.796875 -0.320312 4.554688 -0.175781 4.265625 -0.0625 C 3.984375 0.0507812 3.644531 0.109375 3.25 0.109375 Z M 4.640625 -3.296875 C 4.585938 -3.679688 4.441406 -3.988281 4.203125 -4.21875 C 3.960938 -4.457031 3.628906 -4.578125 3.203125 -4.578125 C 2.773438 -4.578125 2.441406 -4.457031 2.203125 -4.21875 C 1.960938 -3.988281 1.816406 -3.679688 1.765625 -3.296875 Z M 4.640625 -3.296875 "/></g></g></g><g fill="#303030" fill-opacity="1"><g transform="translate(95.392605, 105.398428)"><g><path d="M 0.796875 -5.640625 L 1.921875 -5.640625 L 2.03125 -5.171875 L 2.078125 -5.171875 C 2.242188 -5.359375 2.445312 -5.5 2.6875 -5.59375 C 2.9375 -5.695312 3.210938 -5.75 3.515625 -5.75 C 4.148438 -5.75 4.660156 -5.550781 5.046875 -5.15625 C 5.441406 -4.769531 5.640625 -4.207031 5.640625 -3.46875 L 5.640625 0 L 4.375 0 L 4.375 -3.40625 C 4.375 -3.78125 4.265625 -4.066406 4.046875 -4.265625 C 3.835938 -4.472656 3.570312 -4.578125 3.25 -4.578125 C 3.082031 -4.578125 2.925781 -4.546875 2.78125 -4.484375 C 2.644531 -4.429688 2.523438 -4.351562 2.421875 -4.25 C 2.316406 -4.15625 2.234375 -4.035156 2.171875 -3.890625 C 2.109375 -3.742188 2.078125 -3.582031 2.078125 -3.40625 L 2.078125 0 L 0.796875 0 Z M 0.796875 -5.640625 "/></g></g></g><g fill="#303030" fill-opacity="1"><g transform="translate(104.653366, 105.398428)"><g><path d="M 2.765625 0.109375 C 2.429688 0.109375 2.125 0.0507812 1.84375 -0.0625 C 1.5625 -0.1875 1.320312 -0.367188 1.125 -0.609375 C 0.925781 -0.859375 0.769531 -1.164062 0.65625 -1.53125 C 0.539062 -1.90625 0.484375 -2.335938 0.484375 -2.828125 C 0.484375 -3.316406 0.539062 -3.742188 0.65625 -4.109375 C 0.769531 -4.484375 0.925781 -4.789062 1.125 -5.03125 C 1.320312 -5.269531 1.5625 -5.445312 1.84375 -5.5625 C 2.125 -5.6875 2.429688 -5.75 2.765625 -5.75 C 2.960938 -5.75 3.140625 -5.722656 3.296875 -5.671875 C 3.460938 -5.617188 3.601562 -5.554688 3.71875 -5.484375 C 3.84375 -5.421875 3.941406 -5.351562 4.015625 -5.28125 C 4.097656 -5.207031 4.160156 -5.148438 4.203125 -5.109375 L 4.265625 -5.109375 L 4.265625 -7.453125 L 5.546875 -7.453125 L 5.546875 0 L 4.421875 0 L 4.3125 -0.59375 L 4.265625 -0.59375 C 4.234375 -0.539062 4.175781 -0.476562 4.09375 -0.40625 C 4.007812 -0.332031 3.898438 -0.253906 3.765625 -0.171875 C 3.640625 -0.0976562 3.488281 -0.0351562 3.3125 0.015625 C 3.144531 0.078125 2.960938 0.109375 2.765625 0.109375 Z M 3.03125 -1.0625 C 3.207031 -1.0625 3.375 -1.097656 3.53125 -1.171875 C 3.6875 -1.253906 3.820312 -1.363281 3.9375 -1.5 C 4.050781 -1.644531 4.140625 -1.828125 4.203125 -2.046875 C 4.273438 -2.273438 4.3125 -2.535156 4.3125 -2.828125 C 4.3125 -3.117188 4.273438 -3.375 4.203125 -3.59375 C 4.140625 -3.8125 4.050781 -3.992188 3.9375 -4.140625 C 3.820312 -4.285156 3.6875 -4.394531 3.53125 -4.46875 C 3.375 -4.539062 3.207031 -4.578125 3.03125 -4.578125 C 2.65625 -4.578125 2.347656 -4.429688 2.109375 -4.140625 C 1.878906 -3.847656 1.765625 -3.410156 1.765625 -2.828125 C 1.765625 -2.234375 1.878906 -1.789062 2.109375 -1.5 C 2.347656 -1.207031 2.65625 -1.0625 3.03125 -1.0625 Z M 3.03125 -1.0625 "/></g></g></g><g fill="#303030" fill-opacity="1"><g transform="translate(113.914122, 105.398428)"><g/></g></g><g fill="#303030" fill-opacity="1"><g transform="translate(123.174878, 105.398428)"><g><path d="M 0.59375 -7.453125 L 2.671875 -7.453125 C 3.160156 -7.453125 3.613281 -7.363281 4.03125 -7.1875 C 4.445312 -7.019531 4.804688 -6.773438 5.109375 -6.453125 C 5.410156 -6.128906 5.644531 -5.738281 5.8125 -5.28125 C 5.988281 -4.820312 6.078125 -4.304688 6.078125 -3.734375 C 6.078125 -3.148438 5.988281 -2.628906 5.8125 -2.171875 C 5.644531 -1.710938 5.410156 -1.320312 5.109375 -1 C 4.804688 -0.675781 4.445312 -0.425781 4.03125 -0.25 C 3.613281 -0.0820312 3.160156 0 2.671875 0 L 0.59375 0 Z M 2.609375 -1.28125 C 2.890625 -1.28125 3.148438 -1.332031 3.390625 -1.4375 C 3.640625 -1.550781 3.851562 -1.710938 4.03125 -1.921875 C 4.21875 -2.128906 4.363281 -2.382812 4.46875 -2.6875 C 4.582031 -3 4.640625 -3.347656 4.640625 -3.734375 C 4.640625 -4.117188 4.582031 -4.460938 4.46875 -4.765625 C 4.363281 -5.066406 4.21875 -5.320312 4.03125 -5.53125 C 3.851562 -5.738281 3.640625 -5.898438 3.390625 -6.015625 C 3.148438 -6.128906 2.890625 -6.1875 2.609375 -6.1875 L 2.03125 -6.1875 L 2.03125 -1.28125 Z M 2.609375 -1.28125 "/></g></g></g><g fill="#303030" fill-opacity="1"><g transform="translate(132.435633, 105.398428)"><g><path d="M 3.25 0.109375 C 2.820312 0.109375 2.4375 0.046875 2.09375 -0.078125 C 1.757812 -0.210938 1.46875 -0.40625 1.21875 -0.65625 C 0.976562 -0.90625 0.796875 -1.210938 0.671875 -1.578125 C 0.546875 -1.941406 0.484375 -2.359375 0.484375 -2.828125 C 0.484375 -3.296875 0.546875 -3.707031 0.671875 -4.0625 C 0.796875 -4.425781 0.976562 -4.734375 1.21875 -4.984375 C 1.46875 -5.234375 1.757812 -5.421875 2.09375 -5.546875 C 2.4375 -5.679688 2.820312 -5.75 3.25 -5.75 C 3.644531 -5.75 4.003906 -5.6875 4.328125 -5.5625 C 4.660156 -5.4375 4.941406 -5.25 5.171875 -5 C 5.410156 -4.757812 5.59375 -4.46875 5.71875 -4.125 C 5.851562 -3.789062 5.921875 -3.410156 5.921875 -2.984375 C 5.921875 -2.898438 5.914062 -2.820312 5.90625 -2.75 C 5.894531 -2.6875 5.882812 -2.625 5.875 -2.5625 C 5.875 -2.5 5.867188 -2.441406 5.859375 -2.390625 L 1.765625 -2.390625 C 1.816406 -2.015625 1.960938 -1.695312 2.203125 -1.4375 C 2.441406 -1.1875 2.773438 -1.0625 3.203125 -1.0625 C 3.546875 -1.0625 3.8125 -1.125 4 -1.25 C 4.195312 -1.382812 4.332031 -1.535156 4.40625 -1.703125 L 5.6875 -1.703125 C 5.632812 -1.503906 5.550781 -1.296875 5.4375 -1.078125 C 5.332031 -0.867188 5.179688 -0.675781 4.984375 -0.5 C 4.796875 -0.320312 4.554688 -0.175781 4.265625 -0.0625 C 3.984375 0.0507812 3.644531 0.109375 3.25 0.109375 Z M 4.640625 -3.296875 C 4.585938 -3.679688 4.441406 -3.988281 4.203125 -4.21875 C 3.960938 -4.457031 3.628906 -4.578125 3.203125 -4.578125 C 2.773438 -4.578125 2.441406 -4.457031 2.203125 -4.21875 C 1.960938 -3.988281 1.816406 -3.679688 1.765625 -3.296875 Z M 4.640625 -3.296875 "/></g></g></g><g fill="#303030" fill-opacity="1"><g transform="translate(141.696389, 105.398428)"><g><path d="M 0.3125 -5.640625 L 1.765625 -5.640625 L 2.921875 -1.921875 L 3.09375 -1.015625 L 3.296875 -1.015625 L 3.46875 -1.921875 L 4.640625 -5.640625 L 6.078125 -5.640625 L 4.046875 0 L 2.34375 0 Z M 0.3125 -5.640625 "/></g></g></g><g fill="#303030" fill-opacity="1"><g transform="translate(150.957145, 105.398428)"><g><path d="M 3.25 0.109375 C 2.820312 0.109375 2.4375 0.046875 2.09375 -0.078125 C 1.757812 -0.210938 1.46875 -0.40625 1.21875 -0.65625 C 0.976562 -0.90625 0.796875 -1.210938 0.671875 -1.578125 C 0.546875 -1.941406 0.484375 -2.359375 0.484375 -2.828125 C 0.484375 -3.296875 0.546875 -3.707031 0.671875 -4.0625 C 0.796875 -4.425781 0.976562 -4.734375 1.21875 -4.984375 C 1.46875 -5.234375 1.757812 -5.421875 2.09375 -5.546875 C 2.4375 -5.679688 2.820312 -5.75 3.25 -5.75 C 3.644531 -5.75 4.003906 -5.6875 4.328125 -5.5625 C 4.660156 -5.4375 4.941406 -5.25 5.171875 -5 C 5.410156 -4.757812 5.59375 -4.46875 5.71875 -4.125 C 5.851562 -3.789062 5.921875 -3.410156 5.921875 -2.984375 C 5.921875 -2.898438 5.914062 -2.820312 5.90625 -2.75 C 5.894531 -2.6875 5.882812 -2.625 5.875 -2.5625 C 5.875 -2.5 5.867188 -2.441406 5.859375 -2.390625 L 1.765625 -2.390625 C 1.816406 -2.015625 1.960938 -1.695312 2.203125 -1.4375 C 2.441406 -1.1875 2.773438 -1.0625 3.203125 -1.0625 C 3.546875 -1.0625 3.8125 -1.125 4 -1.25 C 4.195312 -1.382812 4.332031 -1.535156 4.40625 -1.703125 L 5.6875 -1.703125 C 5.632812 -1.503906 5.550781 -1.296875 5.4375 -1.078125 C 5.332031 -0.867188 5.179688 -0.675781 4.984375 -0.5 C 4.796875 -0.320312 4.554688 -0.175781 4.265625 -0.0625 C 3.984375 0.0507812 3.644531 0.109375 3.25 0.109375 Z M 4.640625 -3.296875 C 4.585938 -3.679688 4.441406 -3.988281 4.203125 -4.21875 C 3.960938 -4.457031 3.628906 -4.578125 3.203125 -4.578125 C 2.773438 -4.578125 2.441406 -4.457031 2.203125 -4.21875 C 1.960938 -3.988281 1.816406 -3.679688 1.765625 -3.296875 Z M 4.640625 -3.296875 "/></g></g></g><g fill="#303030" fill-opacity="1"><g transform="translate(160.2179, 105.398428)"><g><path d="M 0.75 -1.171875 L 2.671875 -1.171875 L 2.671875 -6.28125 L 1.171875 -6.28125 L 1.171875 -7.453125 L 3.9375 -7.453125 L 3.9375 -1.171875 L 5.75 -1.171875 L 5.75 0 L 0.75 0 Z M 0.75 -1.171875 "/></g></g></g><g fill="#303030" fill-opacity="1"><g transform="translate(169.478656, 105.398428)"><g><path d="M 3.203125 0.109375 C 2.796875 0.109375 2.425781 0.0390625 2.09375 -0.09375 C 1.757812 -0.226562 1.472656 -0.421875 1.234375 -0.671875 C 0.992188 -0.929688 0.804688 -1.238281 0.671875 -1.59375 C 0.546875 -1.957031 0.484375 -2.367188 0.484375 -2.828125 C 0.484375 -3.273438 0.546875 -3.679688 0.671875 -4.046875 C 0.804688 -4.410156 0.992188 -4.71875 1.234375 -4.96875 C 1.472656 -5.21875 1.757812 -5.410156 2.09375 -5.546875 C 2.425781 -5.679688 2.796875 -5.75 3.203125 -5.75 C 3.597656 -5.75 3.960938 -5.679688 4.296875 -5.546875 C 4.628906 -5.410156 4.914062 -5.21875 5.15625 -4.96875 C 5.394531 -4.71875 5.582031 -4.410156 5.71875 -4.046875 C 5.851562 -3.679688 5.921875 -3.273438 5.921875 -2.828125 C 5.921875 -2.367188 5.851562 -1.957031 5.71875 -1.59375 C 5.582031 -1.238281 5.394531 -0.929688 5.15625 -0.671875 C 4.914062 -0.421875 4.628906 -0.226562 4.296875 -0.09375 C 3.960938 0.0390625 3.597656 0.109375 3.203125 0.109375 Z M 3.203125 -1.0625 C 3.628906 -1.0625 3.972656 -1.207031 4.234375 -1.5 C 4.503906 -1.789062 4.640625 -2.234375 4.640625 -2.828125 C 4.640625 -3.410156 4.503906 -3.847656 4.234375 -4.140625 C 3.972656 -4.429688 3.628906 -4.578125 3.203125 -4.578125 C 2.773438 -4.578125 2.425781 -4.429688 2.15625 -4.140625 C 1.894531 -3.847656 1.765625 -3.410156 1.765625 -2.828125 C 1.765625 -2.234375 1.894531 -1.789062 2.15625 -1.5 C 2.425781 -1.207031 2.773438 -1.0625 3.203125 -1.0625 Z M 3.203125 -1.0625 "/></g></g></g><g fill="#303030" fill-opacity="1"><g transform="translate(178.739412, 105.398428)"><g><path d="M 0.859375 -5.640625 L 1.96875 -5.640625 L 2.078125 -5.0625 L 2.125 -5.0625 C 2.15625 -5.101562 2.210938 -5.160156 2.296875 -5.234375 C 2.378906 -5.304688 2.484375 -5.378906 2.609375 -5.453125 C 2.742188 -5.535156 2.894531 -5.601562 3.0625 -5.65625 C 3.238281 -5.71875 3.425781 -5.75 3.625 -5.75 C 3.957031 -5.75 4.265625 -5.6875 4.546875 -5.5625 C 4.828125 -5.445312 5.066406 -5.269531 5.265625 -5.03125 C 5.472656 -4.789062 5.632812 -4.484375 5.75 -4.109375 C 5.863281 -3.742188 5.921875 -3.316406 5.921875 -2.828125 C 5.921875 -2.335938 5.863281 -1.90625 5.75 -1.53125 C 5.632812 -1.164062 5.472656 -0.859375 5.265625 -0.609375 C 5.066406 -0.367188 4.828125 -0.1875 4.546875 -0.0625 C 4.265625 0.0507812 3.957031 0.109375 3.625 0.109375 C 3.425781 0.109375 3.242188 0.0820312 3.078125 0.03125 C 2.921875 -0.0195312 2.78125 -0.078125 2.65625 -0.140625 C 2.539062 -0.210938 2.441406 -0.285156 2.359375 -0.359375 C 2.285156 -0.429688 2.226562 -0.488281 2.1875 -0.53125 L 2.125 -0.53125 L 2.125 2.125 L 0.859375 2.125 Z M 3.359375 -1.0625 C 3.523438 -1.0625 3.6875 -1.097656 3.84375 -1.171875 C 4 -1.253906 4.132812 -1.363281 4.25 -1.5 C 4.375 -1.644531 4.46875 -1.828125 4.53125 -2.046875 C 4.601562 -2.273438 4.640625 -2.535156 4.640625 -2.828125 C 4.640625 -3.117188 4.601562 -3.375 4.53125 -3.59375 C 4.46875 -3.8125 4.375 -3.992188 4.25 -4.140625 C 4.132812 -4.285156 4 -4.394531 3.84375 -4.46875 C 3.6875 -4.539062 3.523438 -4.578125 3.359375 -4.578125 C 2.984375 -4.578125 2.675781 -4.429688 2.4375 -4.140625 C 2.195312 -3.847656 2.078125 -3.410156 2.078125 -2.828125 C 2.078125 -2.234375 2.195312 -1.789062 2.4375 -1.5 C 2.675781 -1.207031 2.984375 -1.0625 3.359375 -1.0625 Z M 3.359375 -1.0625 "/></g></g></g><g fill="#303030" fill-opacity="1"><g transform="translate(188.000168, 105.398428)"><g><path d="M 3.25 0.109375 C 2.820312 0.109375 2.4375 0.046875 2.09375 -0.078125 C 1.757812 -0.210938 1.46875 -0.40625 1.21875 -0.65625 C 0.976562 -0.90625 0.796875 -1.210938 0.671875 -1.578125 C 0.546875 -1.941406 0.484375 -2.359375 0.484375 -2.828125 C 0.484375 -3.296875 0.546875 -3.707031 0.671875 -4.0625 C 0.796875 -4.425781 0.976562 -4.734375 1.21875 -4.984375 C 1.46875 -5.234375 1.757812 -5.421875 2.09375 -5.546875 C 2.4375 -5.679688 2.820312 -5.75 3.25 -5.75 C 3.644531 -5.75 4.003906 -5.6875 4.328125 -5.5625 C 4.660156 -5.4375 4.941406 -5.25 5.171875 -5 C 5.410156 -4.757812 5.59375 -4.46875 5.71875 -4.125 C 5.851562 -3.789062 5.921875 -3.410156 5.921875 -2.984375 C 5.921875 -2.898438 5.914062 -2.820312 5.90625 -2.75 C 5.894531 -2.6875 5.882812 -2.625 5.875 -2.5625 C 5.875 -2.5 5.867188 -2.441406 5.859375 -2.390625 L 1.765625 -2.390625 C 1.816406 -2.015625 1.960938 -1.695312 2.203125 -1.4375 C 2.441406 -1.1875 2.773438 -1.0625 3.203125 -1.0625 C 3.546875 -1.0625 3.8125 -1.125 4 -1.25 C 4.195312 -1.382812 4.332031 -1.535156 4.40625 -1.703125 L 5.6875 -1.703125 C 5.632812 -1.503906 5.550781 -1.296875 5.4375 -1.078125 C 5.332031 -0.867188 5.179688 -0.675781 4.984375 -0.5 C 4.796875 -0.320312 4.554688 -0.175781 4.265625 -0.0625 C 3.984375 0.0507812 3.644531 0.109375 3.25 0.109375 Z M 4.640625 -3.296875 C 4.585938 -3.679688 4.441406 -3.988281 4.203125 -4.21875 C 3.960938 -4.457031 3.628906 -4.578125 3.203125 -4.578125 C 2.773438 -4.578125 2.441406 -4.457031 2.203125 -4.21875 C 1.960938 -3.988281 1.816406 -3.679688 1.765625 -3.296875 Z M 4.640625 -3.296875 "/></g></g></g><g fill="#303030" fill-opacity="1"><g transform="translate(197.260923, 105.398428)"><g><path d="M 0.6875 -1.171875 L 2.03125 -1.171875 L 2.03125 -4.46875 L 0.90625 -4.46875 L 0.90625 -5.640625 L 2.875 -5.640625 L 3.09375 -4.90625 L 3.25 -4.90625 C 3.351562 -5.164062 3.53125 -5.351562 3.78125 -5.46875 C 4.039062 -5.582031 4.304688 -5.640625 4.578125 -5.640625 L 5.703125 -5.640625 L 5.703125 -4.421875 L 4.734375 -4.421875 C 4.285156 -4.421875 3.929688 -4.296875 3.671875 -4.046875 C 3.421875 -3.796875 3.296875 -3.457031 3.296875 -3.03125 L 3.296875 -1.171875 L 5.171875 -1.171875 L 5.171875 0 L 0.6875 0 Z M 0.6875 -1.171875 "/></g></g></g></svg>